<svg xmlns="http://www.w3.org/2000/svg" viewBox="0 0 256 256" role="img" aria-labelledby="t d">
  <title id="t">ADHDclearfocus logo</title>
  <desc id="d">A heart-shaped tree and neural pathway mark in teal and gold.</desc>
  <defs>
    <linearGradient id="g" x1="38" y1="28" x2="218" y2="226" gradientUnits="userSpaceOnUse">
      <stop offset="0" stop-color="#00D4DD"/>
      <stop offset="0.48" stop-color="#57E7EA"/>
      <stop offset="1" stop-color="#FFB347"/>
    </linearGradient>
    <filter id="s" x="-20%" y="-20%" width="140%" height="140%"><feDropShadow dx="0" dy="12" stdDeviation="12" flood-color="#000" flood-opacity=".25"/></filter>
  </defs>
  <circle cx="128" cy="128" r="112" fill="#0A1628"/>
  <path filter="url(#s)" d="M128 216C77 178 42 143 42 96c0-31 20-54 49-54 18 0 31 9 37 22 6-13 19-22 37-22 29 0 49 23 49 54 0 47-35 82-86 120Z" fill="none" stroke="url(#g)" stroke-width="13" stroke-linecap="round" stroke-linejoin="round"/>
  <path d="M128 207V75M128 132c-23-10-38-27-45-49M128 153c25-11 42-29 50-56M128 174c-22-3-42-14-59-34M128 184c25-5 46-18 63-39" fill="none" stroke="url(#g)" stroke-width="9" stroke-linecap="round" stroke-linejoin="round"/>
  <circle cx="86" cy="84" r="8" fill="#00D4DD"/>
  <circle cx="177" cy="97" r="8" fill="#FFB347"/>
  <circle cx="69" cy="140" r="7" fill="#4FC3F7"/>
  <circle cx="191" cy="145" r="7" fill="#FFB347"/>
</svg>
